HIERARCHY
ROOT Hips
{
	OFFSET	0.00	0.00	0.00
	CHANNELS 6 Xposition Yposition Zposition Zrotation Xrotation Yrotation
	JOINT LeftUpLeg
	{
		OFFSET	 0.126116	-0.014019	-0.065224
		CHANNELS 3 Zrotation Xrotation Yrotation
		JOINT LeftLeg
		{
			OFFSET	 0.000000	 0.000000	 0.569914
			CHANNELS 3 Zrotation Xrotation Yrotation
			JOINT LeftFoot
			{
				OFFSET	 0.000000	 0.000000	 0.544423
				CHANNELS 3 Zrotation Xrotation Yrotation
				JOINT LeftToeBase
				{
					OFFSET	 0.000000	 0.000000	 0.207117
					CHANNELS 3 Zrotation Xrotation Yrotation
					End Site
					{
						OFFSET	 0.000000	 0.000000	 0.207117
					}
				}
			}
		}
	}
	JOINT RightUpLeg
	{
		OFFSET	-0.124023	-0.008373	-0.065224
		CHANNELS 3 Zrotation Xrotation Yrotation
		JOINT RightLeg
		{
			OFFSET	 0.000000	 0.000000	 0.570047
			CHANNELS 3 Zrotation Xrotation Yrotation
			JOINT RightFoot
			{
				OFFSET	 0.000000	 0.000000	 0.544354
				CHANNELS 3 Zrotation Xrotation Yrotation
				JOINT RightToeBase
				{
					OFFSET	 0.000000	 0.000000	 0.207540
					CHANNELS 3 Zrotation Xrotation Yrotation
					End Site
					{
						OFFSET	 0.000000	 0.000000	 0.207540
					}
				}
			}
		}
	}
	JOINT Spine
	{
		OFFSET	 0.000184	-0.007763	 0.117403
		CHANNELS 3 Zrotation Xrotation Yrotation
		JOINT Spine1
		{
			OFFSET	 0.000000	 0.000000	 0.137269
			CHANNELS 3 Zrotation Xrotation Yrotation
			JOINT Spine2
			{
				OFFSET	 0.000000	 0.000000	 0.156879
				CHANNELS 3 Zrotation Xrotation Yrotation
				JOINT LeftShoulder
				{
					OFFSET	 0.080501	-0.002496	 0.160144
					CHANNELS 3 Zrotation Xrotation Yrotation
					JOINT LeftArm
					{
						OFFSET	 0.000000	 0.000000	 0.164363
						CHANNELS 3 Zrotation Xrotation Yrotation
						JOINT LeftForeArm
						{
							OFFSET	 0.000000	 0.000000	 0.364576
							CHANNELS 3 Zrotation Xrotation Yrotation
							JOINT LeftHand
							{
								OFFSET	 0.000000	 0.000000	 0.360812
								CHANNELS 3 Zrotation Xrotation Yrotation
								JOINT LeftHandIndex1
								{
									OFFSET	 0.000000	 0.000000	 0.086006
									CHANNELS 3 Zrotation Xrotation Yrotation
									JOINT LeftHandIndex2
									{
										OFFSET	 0.000000	 0.000000	 0.047236
										CHANNELS 3 Zrotation Xrotation Yrotation
										JOINT LeftHandIndex3
										{
											OFFSET	-0.004284	-0.000551	 0.038166
											CHANNELS 3 Zrotation Xrotation Yrotation
											End Site
											{
												OFFSET	-0.004284	-0.000551	 0.038166
											}
										}
									}
								}
							}
						}
					}
				}
				JOINT Neck
				{
					OFFSET	 0.000000	 0.000000	 0.176489
					CHANNELS 3 Zrotation Xrotation Yrotation
					JOINT Head
					{
						OFFSET	 0.000000	-0.001747	 0.077940
						CHANNELS 3 Zrotation Xrotation Yrotation
						End Site
						{
							OFFSET	 0.000000	-0.001747	 0.077940
						}
					}
				}
				JOINT RightShoulder
				{
					OFFSET	-0.080363	 0.000306	 0.159706
					CHANNELS 3 Zrotation Xrotation Yrotation
					JOINT RightArm
					{
						OFFSET	 0.000000	 0.000000	 0.164196
						CHANNELS 3 Zrotation Xrotation Yrotation
						JOINT RightForeArm
						{
							OFFSET	 0.000000	 0.000000	 0.365611
							CHANNELS 3 Zrotation Xrotation Yrotation
							JOINT RightHand
							{
								OFFSET	 0.000000	 0.000000	 0.360648
								CHANNELS 3 Zrotation Xrotation Yrotation
								JOINT RightHandIndex1
								{
									OFFSET	 0.000000	 0.000000	 0.069977
									CHANNELS 3 Zrotation Xrotation Yrotation
									JOINT RightHandIndex2
									{
										OFFSET	 0.000000	 0.000000	 0.052305
										CHANNELS 3 Zrotation Xrotation Yrotation
										JOINT RightHandIndex3
										{
											OFFSET	 0.009002	-0.000782	 0.042196
											CHANNELS 3 Zrotation Xrotation Yrotation
											End Site
											{
												OFFSET	 0.009002	-0.000782	 0.042196
											}
										}
									}
								}
							}
						}
					}
				}
			}
		}
	}
}
MOTION
Frames:    4
Frame Time: 0.03333334
-14.851880	-39.135100	 0.840974	-40.830320	 16.806560	 3.772871	 3.279061	-35.086190	 175.040500	-0.717266	-43.441390	-0.056531	-0.548955	 80.417020	 0.666222	-2.347459	 34.803670	-0.144167	-0.699972	-36.403210	-179.642600	-3.147141	-43.678920	-1.041667	-1.574464	 80.387650	 0.340748	 2.406888	 19.577980	-0.181468	 26.566810	 15.807150	 2.978688	-11.075100	 3.561531	-1.488907	-13.988070	-1.933645	-1.165478	-125.911600	 89.280720	-141.628700	 51.928660	 64.852020	-60.594700	-27.532690	 13.063570	-40.030160	-41.273030	 1.533930	-5.691201	-5.885029	-12.613760	-1.807816	-5.213516	-0.193813	 3.566525	-1.378229	 35.397820	-2.634230	 0.841240	 0.273042	-3.832292	-3.456758	-6.719292	 0.528451	 93.682400	 85.913130	 171.993900	-62.922780	 73.283030	 73.519740	 11.277100	 1.540258	 56.135090	 15.469230	 3.389657	 9.602001	-10.237670	-10.685970	-39.182220	 5.070815	-0.697434	-9.399699	-2.350882	 35.473990	 5.254307
-14.860900	-39.151360	 0.842978	-40.560630	 17.672410	 3.776307	 3.607090	-34.868050	 175.509000	-1.667480	-43.064410	-0.521883	-0.856446	 81.224780	 0.399432	-2.353847	 33.957150	-0.124044	-0.757840	-35.907870	-179.438500	-2.842765	-42.832720	-0.876135	-1.599688	 81.704610	 0.625948	 2.406366	 20.167810	-0.169768	 22.512990	 15.512280	 2.731178	-11.094770	 3.215594	-1.601400	-14.047940	-2.395764	-1.227076	-125.202200	 89.270730	-142.353600	 57.277600	 66.595570	-62.284540	-24.326620	 8.954820	-35.161620	-38.257060	 1.425512	-5.649738	-5.509767	-12.045750	-0.987840	-5.213516	-0.193813	 3.566525	-1.378229	 35.397820	-2.634230	 0.780361	 0.033044	-3.746031	-3.481714	-7.417245	 0.790371	 93.694210	 85.965410	 172.049900	-59.387760	 76.052730	 67.957500	 9.966125	-1.821307	 44.182100	 11.157680	 3.152606	 9.606380	-9.669647	-9.529208	-38.687490	 5.070815	-0.697434	-9.399699	-2.350882	 35.473990	 5.254307
-14.870270	-39.167060	 0.843212	-40.614320	 18.435130	 3.835953	 3.557370	-34.977740	 175.623500	-2.063492	-43.443640	-0.836822	-1.047805	 82.092220	 0.214338	-2.346686	 34.901550	-0.146518	-0.747427	-35.474640	-179.460100	-2.408000	-42.356930	-0.579451	-1.487430	 82.943500	 0.919302	 2.405008	 21.299870	-0.147181	 17.168340	 15.168260	 2.549866	-10.965400	 2.873137	-1.694011	-14.130110	-2.812370	-1.285598	-121.572700	 89.181470	-145.889000	 62.297490	 67.895870	-64.041180	-19.736520	 4.955550	-29.965900	-34.521240	 1.120971	-5.719821	-4.739716	-11.322250	 0.761715	-5.213516	-0.193813	 3.566525	-1.378229	 35.397820	-2.634230	 0.742281	-0.338623	-3.491765	-3.624551	-8.047657	 0.546436	 93.671220	 86.042600	 172.211400	-49.080280	 79.022000	 54.815560	 6.788801	-5.182585	 34.397110	 5.970864	 2.652883	 9.717863	-9.058242	-8.261716	-38.150470	 5.070815	-0.697434	-9.399699	-2.350882	 35.473990	 5.254307
-14.877690	-39.179500	 0.843812	-41.043530	 18.949970	 3.947770	 3.559419	-34.858040	 175.680500	-2.184766	-43.711120	-0.934426	-1.126665	 82.513580	 0.179818	-2.336861	 36.096410	-0.175528	-0.738421	-35.292790	-179.569900	-2.351941	-42.171190	-0.536706	-1.485730	 83.339970	 0.990755	 2.404637	 21.552230	-0.142120	 11.213160	 14.885040	 2.365270	-10.771580	 2.495196	-1.554625	-14.087140	-3.211755	-1.330643	-114.912000	 88.973980	-152.494600	 65.267740	 68.993350	-64.736060	-15.419640	 1.886114	-25.123860	-31.039620	 0.640789	-5.873808	-4.071818	-10.628290	 2.314276	-5.213516	-0.193813	 3.566525	-1.378229	 35.397820	-2.634230	 0.850758	-0.542346	-3.240443	-3.662814	-8.652286	 0.597158	 93.986430	 86.321610	 172.012400	-37.119370	 80.484050	 40.725050	 3.233998	-7.675663	 27.437060	 1.922895	 1.956634	 9.911553	-8.757655	-7.573345	-37.924740	 5.070815	-0.697434	-9.399699	-2.350882	 35.473990	 5.254307
